#!OML:ASF E:\inclinewalkrobotboard\Project 1\Capture day 1\Session 1\subject1.ASF
:FULLY-SPECIFIED
:DEGREES
1
root 7.05224 16.4803 34.8377 -174.993 2.11525 -179.177
lowerback -6.63634 0.813142 -4.12717
upperback 1.02372 1.34142 2.56037
thorax 4.63984 0.533104 5.14181
lowerneck -7.04349 -1.02264 -5.11931
upperneck 25.1161 -3.75919 4.79255
head 9.18592 -2.47901 2.02963
rclavicle -2.73329e-015 9.93923e-015
rhumerus -46.2579 -36.073 -59.2563
rradius 23.7557
rwrist 21.5492
rhand -18.2055 -40.709
rfingers 7.12502
rthumb 8.07203 -70.5349
lclavicle -2.73329e-015 9.93923e-015
lhumerus -24.3768 7.36361 86.3363
lradius 17.2671
lwrist -32.8203
lhand -31.6241 -21.683
lfingers 7.12502
lthumb -4.88576 8.24064
rfemur -5.07215 0.863428 24.355
rtibia 12.4578
rfoot -15.4358 -1.3134
rtoes -21.0696
lfemur -13.6351 -9.21738 -18.6711
ltibia 28.4597
lfoot -23.6591 6.33555
ltoes -60.0015
2
root 7.0421 16.4839 34.8536 -175.003 2.35457 -179.481
lowerback -6.63756 0.650948 -4.4447
upperback 1.06492 1.14869 2.54584
thorax 4.70186 0.424778 5.28918
lowerneck -7.23518 -0.858441 -5.15341
upperneck 25.4428 -3.59263 4.858
head 9.32824 -2.4137 2.07213
rclavicle -9.24349e-015 -1.78906e-014
rhumerus -46.3516 -35.9713 -59.2416
rradius 23.8545
rwrist 21.501
rhand -18.558 -40.9989
rfingers 7.12502
rthumb 7.73174 -70.8375
lclavicle -9.24349e-015 -1.78906e-014
lhumerus -24.1863 7.51923 86.4985
lradius 17.2592
lwrist -33.1189
lhand -32.6411 -21.1695
lfingers 7.12502
lthumb -5.86767 8.72925
rfemur -5.25692 1.10312 23.998
rtibia 12.6759
rfoot -15.5529 -1.38093
rtoes -21.1354
lfemur -13.5149 -9.16477 -19.0858
ltibia 28.1895
lfoot -23.6536 6.47467
ltoes -59.9576
3
root 7.03189 16.487 34.8709 -174.983 2.49838 -179.687
lowerback -6.63951 0.540845 -4.61633
upperback 1.06632 1.01535 2.49603
thorax 4.71942 0.352745 5.321
lowerneck -7.31907 -0.687125 -5.02402
upperneck 25.7704 -3.46423 4.93599
head 9.45077 -2.35546 2.08803
rclavicle 1.11816e-015 -2.94201e-014
rhumerus -46.8305 -36.2868 -58.8626
rradius 23.9449
rwrist 21.7826
rhand -18.6578 -40.8378
rfingers 7.12502
rthumb 7.63545 -70.68
lclavicle 1.11816e-015 -2.94201e-014
lhumerus -24.0191 7.6892 86.573
lradius 17.0981
lwrist -33.8063
lhand -33.5972 -20.6719
lfingers 7.12502
lthumb -6.79071 9.19916
rfemur -5.44694 1.2857 23.7522
rtibia 12.8405
rfoot -15.6444 -1.43833
rtoes -20.7818
lfemur -13.4113 -9.12511 -19.3518
ltibia 27.8818
lfoot -23.5882 6.68122
ltoes -60.1548
4
root 7.02424 16.4908 34.8881 -174.97 2.66144 -179.776
lowerback -6.58176 0.533887 -4.67778
upperback 1.01341 1.00907 2.45289
thorax 4.63178 0.351986 5.30725
lowerneck -7.30381 -3.05704 -4.6466
upperneck 26.3928 -2.603 4.35585
head 9.6483 -0.431013 2.17524
rclavicle -2.93207e-015 -7.55382e-015
rhumerus -47.7045 -37.1843 -57.8648
rradius 23.7049
rwrist 22.3297
rhand -19.6257 -40.5941
rfingers 7.12502
rthumb 6.70116 -70.4681
lclavicle -2.93207e-015 -7.55382e-015
lhumerus -23.9212 7.97639 86.6022
lradius 16.911
lwrist -34.8001
lhand -34.3117 -21.04
lfingers 7.12502
lthumb -7.4804 8.80772
rfemur -5.61279 1.51713 23.6486
rtibia 12.9645
rfoot -15.722 -1.47726
rtoes -20.0749
lfemur -13.2891 -8.99608 -19.4506
ltibia 27.5399
lfoot -23.5406 6.78941
ltoes -60.2048
5
root 7.01801 16.4956 34.9013 -174.957 2.82369 -179.809
lowerback -6.49151 0.565986 -4.69596
upperback 0.904853 1.05012 2.42727
thorax 4.46185 0.380166 5.29022
lowerneck -7.65348 -2.98111 -4.28268
upperneck 27.215 -2.41573 4.24769
head 9.99617 -0.269251 2.11681
rclavicle -5.01931e-015 3.97569e-015
rhumerus -48.6934 -38.1564 -56.6885
rradius 23.3475
rwrist 23.157
rhand -19.9881 -40.7974
rfingers 7.12502
rthumb 6.35127 -70.6821
lclavicle -5.01931e-015 3.97569e-015
lhumerus -24.0357 7.99451 86.738
lradius 17.0342
lwrist -35.2214
lhand -34.8574 -21.8901
lfingers 7.12502
lthumb -8.00711 7.93824
rfemur -5.73126 1.76073 23.6066
rtibia 13.0263
rfoot -15.801 -1.46424
rtoes -19.481
lfemur -13.162 -8.82444 -19.476
ltibia 27.1763
lfoot -23.4268 6.91149
ltoes -60.3536
6
root 7.01047 16.5012 34.9115 -174.94 2.93774 -179.785
lowerback -6.45682 0.59459 -4.63443
upperback 0.836584 1.08254 2.42518
thorax 4.3676 0.402818 5.25386
lowerneck -8.21201 -2.85052 -3.82846
upperneck 28.0796 -2.15252 4.06826
head 10.4015 -0.0720845 2.02758
rclavicle 6.60959e-015 -9.54166e-015
rhumerus -49.7393 -39.2732 -55.2943
rradius 22.9673
rwrist 24.7175
rhand -18.9923 -40.7461
rfingers 7.12502
rthumb 7.31258 -70.5997
lclavicle 6.60959e-015 -9.54166e-015
lhumerus -24.1221 7.98792 86.9389
lradius 17.2207
lwrist -35.2212
lhand -35.2299 -22.8329
lfingers 7.12502
lthumb -8.36664 6.98137
rfemur -5.80268 1.9732 23.6236
rtibia 13.0222
rfoot -15.8049 -1.48737
rtoes -19.199
lfemur -13.0227 -8.66565 -19.4468
ltibia 26.7917
lfoot -23.2097 7.00272
ltoes -60.517
7
root 7.00279 16.5067 34.9193 -174.97 3.03588 -179.809
lowerback -6.4859 0.580864 -4.62379
upperback 0.854536 1.06402 2.46013
thorax 4.40477 0.392229 5.28405
lowerneck -8.08715 -3.17559 -4.32761
upperneck 29.0835 -2.37804 4.20341
head 10.7775 -0.13904 2.17237
rclavicle 1.46604e-015 -1.59028e-014
rhumerus -50.7485 -40.4584 -53.7018
rradius 22.1558
rwrist 25.7463
rhand -20.4423 -40.2087
rfingers 7.12502
rthumb 5.91283 -70.1062
lclavicle 1.46604e-015 -1.59028e-014
lhumerus -24.1484 8.1968 87.1828
lradius 17.371
lwrist -35.1346
lhand -35.1745 -23.4177
lfingers 7.12502
lthumb -8.31314 6.39874
rfemur -5.7924 2.12958 23.5784
rtibia 12.9793
rfoot -15.718 -1.48977
rtoes -18.7196
lfemur -12.8581 -8.49543 -19.484
ltibia 26.4843
lfoot -22.9304 7.03535
ltoes -60.4995
8
root 6.99492 16.5102 34.9229 -175.051 3.06298 -180.029
lowerback -6.51607 0.488046 -4.81366
upperback 0.899062 0.954945 2.47793
thorax 4.47954 0.329031 5.40224
lowerneck -8.6807 -3.06254 -4.21136
upperneck 30.091 -2.05388 4.07321
head 11.2648 0.0625071 2.17631
rclavicle 3.47873e-015 -1.15295e-014
rhumerus -51.6511 -41.4648 -52.1761
rradius 21.4665
rwrist 27.2672
rhand -21.187 -40.506
rfingers 7.12502
rthumb 5.19384 -70.4223
lclavicle 3.47873e-015 -1.15295e-014
lhumerus -24.224 8.43384 87.5021
lradius 17.5211
lwrist -34.9921
lhand -35.1143 -23.2962
lfingers 7.12502
lthumb -8.25505 6.52253
rfemur -5.68152 2.1133 23.283
rtibia 12.8881
rfoot -15.6665 -1.39435
rtoes -18.2068
lfemur -12.6556 -8.43771 -19.7842
ltibia 26.2227
lfoot -22.6534 7.17147
ltoes -60.6677
9
root 6.98526 16.512 34.9281 -175.099 3.06185 -180.309
lowerback -6.52203 0.422196 -5.0114
upperback 0.931068 0.882746 2.43344
thorax 4.52412 0.285222 5.46166
lowerneck -9.85478 -2.81381 -3.37695
upperneck 31.3883 -1.48988 3.36566
head 11.9752 0.387803 1.88168
rclavicle 7.47927e-015 3.85642e-014
rhumerus -52.6093 -42.4362 -50.6817
rradius 20.8445
rwrist 29.0209
rhand -21.257 -40.8044
rfingers 7.12502
rthumb 5.1262 -70.7224
lclavicle 7.47927e-015 3.85642e-014
lhumerus -24.2402 8.2498 87.9501
lradius 17.6585
lwrist -34.4188
lhand -35.1516 -22.5369
lfingers 7.12502
lthumb -8.29107 7.28043
rfemur -5.63963 1.99482 22.8987
rtibia 12.8507
rfoot -15.6394 -1.26165
rtoes -18.3542
lfemur -12.5064 -8.4297 -20.1671
ltibia 25.9492
lfoot -22.3675 7.3649
ltoes -60.9984
10
root 6.97662 16.5147 34.9391 -175.091 3.08896 -180.422
lowerback -6.51762 0.417246 -5.03012
upperback 0.967121 0.877826 2.40611
thorax 4.5602 0.280087 5.44343
lowerneck -9.45541 -3.18419 -3.9904
upperneck 32.0112 -1.79407 3.576
head 12.1726 0.263612 2.05694
rclavicle -3.13086e-015 -1.94809e-014
rhumerus -53.5398 -43.2936 -49.3867
rradius 20.3251
rwrist 30.5328
rhand -20.99 -40.6915
rfingers 7.12502
rthumb 5.38396 -70.6031
lclavicle -3.13086e-015 -1.94809e-014
lhumerus -24.3159 7.62849 88.4814
lradius 17.9413
lwrist -33.2695
lhand -35.0154 -21.771
lfingers 7.12502
lthumb -8.1596 8.05148
rfemur -5.73989 1.93788 22.7216
rtibia 12.9175
rfoot -15.5483 -1.20254
rtoes -18.9412
lfemur -12.4062 -8.24327 -20.2936
ltibia 25.5868
lfoot -22.0013 7.29997
ltoes -61.1605
11
root 6.97076 16.5189 34.9491 -175.089 3.07179 -180.434
lowerback -6.52335 0.376283 -4.99735
upperback 1.01236 0.819965 2.45283
thorax 4.61833 0.248967 5.46941
lowerneck -10.3449 -3.05436 -3.49684
upperneck 33.2338 -1.34267 3.05115
head 12.8399 0.523459 1.87715
rclavicle 6.95746e-015 -8.34896e-015
rhumerus -54.2864 -43.9219 -48.3551
rradius 19.9834
rwrist 31.8748
rhand -20.8629 -40.8154
rfingers 7.12502
rthumb 5.50672 -70.7239
lclavicle 6.95746e-015 -8.34896e-015
lhumerus -24.5547 7.16213 88.9758
lradius 18.31
lwrist -32.2293
lhand -34.911 -21.4237
lfingers 7.12502
lthumb -8.05883 8.40268
rfemur -5.81858 1.86208 22.6721
rtibia 12.9696
rfoot -15.4593 -1.203
rtoes -19.2168
lfemur -12.2539 -8.04354 -20.2733
ltibia 25.1407
lfoot -21.6306 7.01724
ltoes -61.2325
